PathFileType	4	(X/Y/Z)	D:\MotionData\Pi-Spi Study\20230118_AMCsubject1\Trimmed_left_abd_18001_rotated.trc
DataRate	CameraRate	NumFrames	NumMarkers	Units	OrigDataRate	OrigDataStartFrame	OrigNumFrames
200.00	200.00	       9	35	mm	200.00	101	       200
Frame#	Time	C7			Sternum			r_AMC1			r_AMC2			r_AMC3			l_AMC1			l_AMC2			l_AMC3			PX			T8			r_humerous			r_elbow_medial			r_elbow_lateral			r_forearm			r_wrist_radius			r_wrist_ulna			r_MCP_1			r_MCP_3			l_humerous			l_elbow_medial			l_elbow_lateral			l_forearm			l_wrist_radius			l_wrist_ulna			l_MCP_1			l_MCP_3			r_ASIS			r_PSIS			l_ASIS			l_PSIS			r_IC			l_IC			TS			AI			AA			
		X1	Y1	Z1	X2	Y2	Z2	X3	Y3	Z3	X4	Y4	Z4	X5	Y5	Z5	X6	Y6	Z6	X7	Y7	Z7	X8	Y8	Z8	X9	Y9	Z9	X10	Y10	Z10	X11	Y11	Z11	X12	Y12	Z12	X13	Y13	Z13	X14	Y14	Z14	X15	Y15	Z15	X16	Y16	Z16	X17	Y17	Z17	X18	Y18	Z18	X19	Y19	Z19	X20	Y20	Z20	X21	Y21	Z21	X22	Y22	Z22	X23	Y23	Z23	X24	Y24	Z24	X25	Y25	Z25	X26	Y26	Z26	X27	Y27	Z27	X28	Y28	Z28	X29	Y29	Z29	X30	Y30	Z30	X31	Y31	Z31	X32	Y32	Z32	X33	Y33	Z33	X34	Y34	Z34	X35	Y35	Z35	

101	0.5	200.3094	1368.8953	-208.0414	340.0895	1326.5107	-197.2597	195.5455	1310.3983	-59.2675	227.5084	1313.3173	-20.3397	246.9181	1350.3318	-39.1543	186.2499	1349.5135	-327.7486	218.4349	1384.9216	-344.7701	215.9682	1402.0011	-295.2705	415.3689	1137.8628	-207.1218	180.3196	1188.5199	-224.0397	310.2413	1134.4582	-4.34	250.0295	990.931	-37.2952	260.3992	1000.6349	27.892	316.8075	847.0013	52.7666	368.4719	785.9693	36.947	320.1708	777.725	52.4414	392.0864	703.4952	49.928	342.9998	698.5806	62.0804	301.5609	1484.7958	-350.6627	365.8717	1569.2846	-454.7467	321.1413	1595.2787	-450.1041	347.5368	1751.9355	-460.5181	386.1729	1822.9259	-445.8135	377.5286	1818.1268	-490.1027	377.674	1893.4192	-448.5665	375.382	1889.292	-491.7553	375.2398	905.4741	-81.3118	189.9994	929.6964	-169.1624	382.4913	893.2001	-338.0152	193.5642	924.1914	-270.9912	294.7541	969.041	-55.1516	298.8428	942.1384	-378.4039	128.2271	1290.0033	-290.7935	154.3462	1210.1207	-346.9583	162.3055	1378.2787	-392.7029
102	0.505	200.3491	1368.8893	-208.0256	340.0919	1326.562	-197.2595	195.565	1310.4099	-59.2664	227.5237	1313.3518	-20.3683	246.887	1350.4087	-39.1547	186.259	1349.5016	-327.7108	218.4464	1384.9115	-344.7635	215.9728	1401.9836	-295.2568	415.3944	1137.8663	-207.097	180.3408	1188.5282	-224.0256	310.2288	1134.5135	-4.3261	250.0691	990.9521	-37.3113	260.455	1000.6674	27.9304	316.8539	847.0165	52.7246	368.4904	786.105	36.9462	320.2002	777.7849	52.4048	392.1986	703.4459	49.8794	343.1265	698.5915	62.004	301.6113	1484.7332	-350.6186	365.9116	1569.226	-454.7199	321.157	1595.2985	-450.0263	347.5849	1751.9617	-460.4101	386.1875	1822.9409	-445.7004	377.5348	1818.1627	-489.9959	377.7384	1893.4429	-448.4321	375.438	1889.3237	-491.6401	375.2531	905.4504	-81.2734	190.0223	929.7076	-169.1192	382.4993	893.2175	-337.9796	193.5807	924.1926	-270.949	294.7491	969.0925	-55.1385	298.9052	941.9953	-378.415	128.2341	1289.9742	-290.7474	154.4812	1210.0312	-346.7263	162.3155	1378.3135	-392.6473
103	0.51	200.3541	1368.9053	-208.0131	340.1149	1326.5299	-197.2782	195.5728	1310.4287	-59.2359	227.5246	1313.3472	-20.324	246.9644	1350.3627	-39.1475	186.243	1349.5193	-327.6967	218.4471	1384.9255	-344.7122	215.9524	1401.979	-295.2378	415.4061	1137.8623	-207.0543	180.3584	1188.5431	-224.0002	310.2852	1134.5059	-4.3458	250.1181	990.9593	-37.3154	260.4766	1000.674	27.9104	316.9202	847.0105	52.7117	368.6198	785.994	36.8751	320.2005	777.8298	52.3383	392.2837	703.452	49.7769	343.1966	698.6035	61.9838	301.5945	1484.7562	-350.5691	365.8929	1569.2459	-454.654	321.1037	1595.277	-449.8292	347.5907	1751.9751	-460.3074	386.2352	1822.9287	-445.6073	377.5939	1818.1901	-489.87	377.7517	1893.4672	-448.308	375.4221	1889.3511	-491.5053	375.269	905.5151	-81.2536	190.0392	929.7058	-169.0875	382.5521	893.2217	-337.941	193.5913	924.2061	-270.9345	294.6715	969.0649	-55.1128	298.9476	941.988	-378.3886	127.8797	1290.1172	-290.6896	154.5051	1210.068	-346.719	162.3062	1378.3102	-392.6176
104	0.515	200.3633	1368.9048	-208.0137	340.1338	1326.5386	-197.2557	195.5821	1310.4346	-59.2551	227.5145	1313.4228	-20.338	246.9446	1350.3833	-39.1185	186.2504	1349.5104	-327.6757	218.4555	1384.9196	-344.7278	216.0098	1401.9764	-295.2142	415.4178	1137.8767	-207.0558	180.3531	1188.5608	-223.9723	310.3275	1134.5045	-4.3534	250.1501	990.9778	-37.3312	260.5232	1000.6525	27.8734	316.9796	847.0222	52.6735	368.717	786.0304	36.8155	320.3737	777.7415	52.3005	392.387	703.472	49.7282	343.2861	698.5896	61.9318	301.5999	1484.7283	-350.5075	365.9083	1569.2651	-454.6106	321.1091	1595.2874	-449.7856	347.6146	1751.9928	-460.1934	386.2719	1822.9188	-445.4996	377.7177	1818.1326	-489.6739	377.774	1893.4519	-448.1677	375.4498	1889.3665	-491.361	375.2681	905.5245	-81.2383	190.0438	929.7119	-169.0358	382.5761	893.2439	-337.9062	193.6166	924.1923	-270.9099	294.7329	969.1241	-55.0988	298.925	941.9443	-378.3546	128.2786	1290.0666	-290.7375	154.5232	1210.0686	-346.7054	162.3174	1378.36	-392.5827
105	0.52	200.3865	1368.8953	-208.0045	340.1383	1326.5575	-197.2423	195.6021	1310.4482	-59.2272	227.5672	1313.3915	-20.3586	246.9767	1350.4053	-39.1436	186.2682	1349.5205	-327.6807	218.4516	1384.9392	-344.6852	216.0209	1401.9751	-295.2171	415.4393	1137.873	-207.0375	180.362	1188.5647	-223.9746	310.3514	1134.5374	-4.3603	250.1768	990.9919	-37.3409	260.5961	1000.7042	27.8627	317.0484	847.001	52.6264	368.738	786.0449	36.8016	320.4237	777.753	52.3016	392.4414	703.5331	49.656	343.3669	698.5978	61.8957	301.5896	1484.7374	-350.485	365.9287	1569.2665	-454.5663	321.141	1595.2957	-449.7324	347.6327	1752.015	-460.1125	386.2813	1822.9342	-445.3943	377.7448	1818.1457	-489.5771	377.8259	1893.5041	-447.9983	375.4686	1889.3081	-491.2641	375.3168	905.5204	-81.1653	190.0832	929.7111	-169.0143	382.5669	893.2487	-337.8679	193.6346	924.2028	-270.8905	294.7786	969.0512	-55.0586	298.975	942.0136	-378.32	128.2649	1290.0004	-290.6912	154.5431	1210.0947	-346.6955	162.3081	1378.3612	-392.5813
106	0.525	200.4158	1368.9058	-207.9709	340.1257	1326.5408	-197.23	195.6142	1310.4786	-59.2218	227.5828	1313.3832	-20.3105	246.9999	1350.38	-39.1206	186.2569	1349.5198	-327.6465	218.4626	1384.9242	-344.704	216.0281	1401.9677	-295.1875	415.4413	1137.9041	-207.0193	180.3785	1188.5752	-223.9505	310.3976	1134.5536	-4.3562	250.2365	991.007	-37.3499	260.6327	1000.6514	27.777	317.1257	847.0252	52.6017	368.8127	786.1233	36.7489	320.51	777.7492	52.2206	392.561	703.5087	49.6215	343.3725	698.6716	61.8577	301.631	1484.6573	-350.4702	365.9687	1569.2328	-454.5268	321.2136	1595.3346	-449.8085	347.6679	1752.0076	-460.0179	386.3444	1822.9458	-445.2458	377.7791	1818.1641	-489.4013	377.8431	1893.4835	-447.8489	375.5093	1889.4003	-491.0986	375.331	905.4878	-81.1472	190.0916	929.7127	-168.9745	382.5913	893.2759	-337.8434	193.6288	924.1829	-270.8588	294.8231	969.061	-55.0515	299.0379	941.942	-378.2649	128.2961	1290.0433	-290.6671	154.5569	1210.1025	-346.6769	162.3117	1378.3969	-392.556
107	0.53	200.4167	1368.9144	-207.9587	340.201	1326.5546	-197.2236	195.6122	1310.4838	-59.2444	227.582	1313.4495	-20.3325	247.0015	1350.4274	-39.1251	186.2818	1349.5067	-327.6325	218.4853	1384.9169	-344.6863	216.0607	1401.9531	-295.1771	415.4851	1137.924	-207.0014	180.3967	1188.5563	-223.9546	310.3825	1134.5704	-4.3619	250.2692	991.0334	-37.399	260.6879	1000.6832	27.7942	317.1653	847.0106	52.559	368.8631	786.1465	36.7319	320.5335	777.8353	52.1936	392.6933	703.4941	49.5319	343.5535	698.5906	61.7952	301.6075	1484.6619	-350.423	365.9591	1569.2743	-454.5063	321.1456	1595.3059	-449.6459	347.6916	1752.0034	-459.9166	386.3835	1822.9507	-445.1542	377.8161	1818.1827	-489.2842	377.8908	1893.495	-447.7084	375.5461	1889.3572	-490.9889	375.3983	905.5147	-81.1454	190.1246	929.7009	-168.9558	382.622	893.2681	-337.7761	193.6486	924.1774	-270.7985	294.8256	969.0341	-55.0075	299.0931	941.9571	-378.2487	128.3189	1290.0115	-290.6678	154.5897	1210.1068	-346.6996	162.3175	1378.4059	-392.5422
108	0.535	200.43	1368.9004	-207.9452	340.1929	1326.5541	-197.211	195.6338	1310.4967	-59.2455	227.571	1313.4293	-20.3102	247.0151	1350.4147	-39.1064	186.2679	1349.5115	-327.6325	218.4867	1384.9037	-344.6517	216.0529	1401.9409	-295.1665	415.5169	1137.8889	-207.0057	180.3997	1188.5708	-223.9323	310.428	1134.5369	-4.347	250.3081	991.0417	-37.392	260.7138	1000.6575	27.7512	317.2176	847.0645	52.5311	369.0172	786.0774	36.6576	320.6106	777.7985	52.16	392.7964	703.4936	49.4726	343.5855	698.6051	61.7106	301.6405	1484.6356	-350.4227	365.9758	1569.2564	-454.4337	321.1723	1595.3165	-449.6144	347.7253	1752.0175	-459.8429	386.4353	1822.9374	-445.0234	377.7134	1818.2822	-489.2332	377.9172	1893.4791	-447.5513	375.577	1889.3684	-490.8405	375.3318	905.5358	-81.0819	190.1193	929.6965	-168.9083	382.6579	893.2831	-337.7681	193.669	924.1962	-270.78	294.7835	969.1203	-54.996	299.0305	941.9454	-378.2417	128.3218	1290.0491	-290.6441	154.5763	1210.1213	-346.6759	162.3263	1378.415	-392.5136
109	0.54	200.4624	1368.9094	-207.939	340.2061	1326.5518	-197.1926	195.631	1310.5039	-59.2506	227.6338	1313.4582	-20.3079	247.003	1350.4264	-39.1037	186.2772	1349.4923	-327.6092	218.5052	1384.8872	-344.6602	216.0684	1401.933	-295.1553	415.533	1137.8992	-206.9888	180.4168	1188.5721	-223.9097	310.44	1134.5703	-4.3438	250.3414	991.0538	-37.4046	260.7761	1000.7074	27.7368	317.2891	847.0204	52.4996	369.0874	786.1215	36.6312	320.7109	777.7753	52.0885	392.8199	703.5917	49.4464	343.693	698.6044	61.6805	301.6258	1484.686	-350.3886	365.9569	1569.2753	-454.4059	321.1737	1595.3082	-449.5735	347.762	1752.0305	-459.7684	386.4543	1822.9342	-444.9102	377.7555	1818.2797	-489.1183	377.9736	1893.4924	-447.4052	375.5946	1889.42	-490.6653	375.3482	905.5302	-81.0957	190.136	929.7103	-168.8676	382.6788	893.2888	-337.7291	193.6505	924.1857	-270.7228	294.8749	969.0807	-54.9643	299.0148	942.0138	-378.1567	128.3443	1290.054	-290.6688	154.5955	1210.1031	-346.6283	162.3451	1378.4424	-392.4835
